<svg width="129" height="113" viewBox="0 0 129 113" fill="none" xmlns="http://www.w3.org/2000/svg">
<g opacity="0.5">
<path d="M2.71725 5.58756C1.22276 5.58756 0 4.29814 0 2.72218C0 1.28948 1.22276 6.10352e-05 2.71725 6.10352e-05C4.21173 6.10352e-05 5.29863 1.28948 5.29863 2.72218C5.29863 4.29814 4.07587 5.58756 2.71725 5.58756Z" fill="#FF4F6E"/>
<path d="M27.3088 5.58797C25.8143 5.58797 24.7274 4.29854 24.7274 2.86585C24.7274 1.28989 25.9502 0.143738 27.3088 0.143738C28.6674 0.143738 29.8902 1.43316 29.8902 2.86585C29.8902 4.29854 28.8033 5.58797 27.3088 5.58797Z" fill="#FF4F6E"/>
<path d="M51.8983 5.5875C50.5397 5.5875 49.3169 4.29808 49.3169 2.72212C49.3169 1.28942 50.5397 0 51.8983 0C53.2569 0 54.4797 1.28942 54.4797 2.72212C54.6155 4.29808 53.3928 5.5875 51.8983 5.5875Z" fill="#FF4F6E"/>
<path d="M76.6256 5.5875C75.1312 5.5875 74.0443 4.29808 74.0443 2.86538C73.9084 1.28942 75.1312 0 76.6256 0C78.1201 0 79.207 1.28942 79.207 2.72212C79.207 4.29808 77.9843 5.5875 76.6256 5.5875Z" fill="#FF4F6E"/>
<path d="M101.217 5.58797C99.7224 5.58797 98.6355 4.29854 98.6355 2.86585C98.6355 1.28989 99.8583 0.143738 101.217 0.143738C102.711 0.143738 103.798 1.43316 103.798 2.86585C103.798 4.29854 102.711 5.58797 101.217 5.58797Z" fill="#FF4F6E"/>
<path d="M125.808 5.58797C124.313 5.58797 123.226 4.29854 123.226 2.86585C123.226 1.28989 124.449 0.143738 125.808 0.143738C127.166 0.143738 128.389 1.43316 128.389 2.86585C128.525 4.29854 127.302 5.58797 125.808 5.58797Z" fill="#FF4F6E"/>
<path d="M2.71664 27.0323C1.22215 27.0323 0.135254 25.7429 0.135254 24.3102C0.135254 22.7343 1.35801 21.5881 2.71664 21.5881C4.07526 21.5881 5.29802 22.8775 5.29802 24.3102C5.29802 25.7429 4.07526 27.0323 2.71664 27.0323Z" fill="#FF4F6E"/>
<path d="M27.3075 27.0321C25.813 27.0321 24.7261 25.7427 24.7261 24.31C24.7261 22.734 25.9488 21.5879 27.3075 21.5879C28.6661 21.5879 29.8888 22.8773 29.8888 24.31C29.8888 25.7427 28.8019 27.0321 27.3075 27.0321Z" fill="#FF4F6E"/>
<path d="M51.8983 27.0321C50.4038 27.0321 49.3169 25.7427 49.3169 24.31C49.3169 22.734 50.5397 21.5879 51.8983 21.5879C53.2569 21.5879 54.4797 22.8773 54.4797 24.31C54.6155 25.7427 53.3928 27.0321 51.8983 27.0321Z" fill="#FF4F6E"/>
<path d="M76.6262 27.0321C75.1317 27.0321 74.0448 25.7427 74.0448 24.31C74.0448 22.734 75.2676 21.5879 76.6262 21.5879C77.9848 21.5879 79.2076 22.8773 79.2076 24.31C79.2076 25.7427 77.9848 27.0321 76.6262 27.0321Z" fill="#FF4F6E"/>
<path d="M101.217 27.0321C99.7224 27.0321 98.6355 25.7427 98.6355 24.31C98.6355 22.734 99.8583 21.5879 101.217 21.5879C102.711 21.5879 103.798 22.8773 103.798 24.31C103.798 25.7427 102.711 27.0321 101.217 27.0321Z" fill="#FF4F6E"/>
<path d="M125.806 27.0321C124.312 27.0321 123.225 25.7427 123.225 24.31C123.225 22.734 124.448 21.5879 125.806 21.5879C127.165 21.5879 128.388 22.8773 128.388 24.31C128.524 25.7427 127.301 27.0321 125.806 27.0321Z" fill="#FF4F6E"/>
<path d="M2.71664 48.4768C1.22215 48.4768 0.135254 47.1874 0.135254 45.7547C0.135254 44.1787 1.35801 43.0326 2.71664 43.0326C4.07526 43.0326 5.29802 44.322 5.29802 45.7547C5.29802 47.3307 4.07526 48.4768 2.71664 48.4768Z" fill="#FF4F6E"/>
<path d="M27.3075 48.4767C25.813 48.4767 24.7261 47.1873 24.7261 45.7546C24.7261 44.1787 25.9488 43.0325 27.3075 43.0325C28.6661 43.0325 29.8888 44.3219 29.8888 45.7546C29.8888 47.3306 28.8019 48.4767 27.3075 48.4767Z" fill="#FF4F6E"/>
<path d="M51.8983 48.4767C50.4038 48.4767 49.3169 47.1873 49.3169 45.7546C49.3169 44.1787 50.5397 43.0325 51.8983 43.0325C53.2569 43.0325 54.4797 44.3219 54.4797 45.7546C54.6155 47.3306 53.3928 48.4767 51.8983 48.4767Z" fill="#FF4F6E"/>
<path d="M76.6262 48.4767C75.1317 48.4767 74.0448 47.1873 74.0448 45.7546C74.0448 44.1787 75.2676 43.0325 76.6262 43.0325C77.9848 43.0325 79.2076 44.1787 79.2076 45.7546C79.2076 47.3306 77.9848 48.4767 76.6262 48.4767Z" fill="#FF4F6E"/>
<path d="M101.217 48.4767C99.7224 48.4767 98.6355 47.1873 98.6355 45.7546C98.6355 44.1787 99.8583 43.0325 101.217 43.0325C102.711 43.0325 103.798 44.3219 103.798 45.7546C103.798 47.3306 102.711 48.4767 101.217 48.4767Z" fill="#FF4F6E"/>
<path d="M125.806 48.4767C124.312 48.4767 123.225 47.1873 123.225 45.7546C123.225 44.1787 124.448 43.0325 125.806 43.0325C127.165 43.0325 128.388 44.3219 128.388 45.7546C128.524 47.3306 127.301 48.4767 125.806 48.4767Z" fill="#FF4F6E"/>
<path d="M2.71664 69.9212C1.22215 69.9212 0.135254 68.6318 0.135254 67.1991C0.135254 65.6231 1.35801 64.477 2.71664 64.477C4.07526 64.477 5.29802 65.7664 5.29802 67.1991C5.29802 68.6318 4.07526 69.9212 2.71664 69.9212Z" fill="#FF4F6E"/>
<path d="M27.3075 69.9211C25.813 69.9211 24.7261 68.6316 24.7261 67.1989C24.7261 65.623 25.9488 64.4768 27.3075 64.4768C28.6661 64.4768 29.8888 65.7663 29.8888 67.1989C29.8888 68.6316 28.8019 69.9211 27.3075 69.9211Z" fill="#FF4F6E"/>
<path d="M51.8983 69.9211C50.4038 69.9211 49.3169 68.6316 49.3169 67.1989C49.3169 65.623 50.5397 64.4768 51.8983 64.4768C53.2569 64.4768 54.4797 65.7663 54.4797 67.1989C54.6155 68.6316 53.3928 69.9211 51.8983 69.9211Z" fill="#FF4F6E"/>
<path d="M76.6262 69.9211C75.1317 69.9211 74.0448 68.6316 74.0448 67.1989C74.0448 65.623 75.2676 64.4768 76.6262 64.4768C77.9848 64.4768 79.2076 65.7663 79.2076 67.1989C79.2076 68.6316 77.9848 69.9211 76.6262 69.9211Z" fill="#FF4F6E"/>
<path d="M101.217 69.9211C99.7224 69.9211 98.6355 68.6316 98.6355 67.1989C98.6355 65.623 99.8583 64.4768 101.217 64.4768C102.711 64.4768 103.798 65.7663 103.798 67.1989C103.798 68.6316 102.711 69.9211 101.217 69.9211Z" fill="#FF4F6E"/>
<path d="M125.806 69.9211C124.312 69.9211 123.225 68.6316 123.225 67.1989C123.225 65.623 124.448 64.4768 125.806 64.4768C127.165 64.4768 128.388 65.7663 128.388 67.1989C128.524 68.6316 127.301 69.9211 125.806 69.9211Z" fill="#FF4F6E"/>
<path d="M2.71664 91.366C1.22215 91.366 0.135254 90.0766 0.135254 88.6439C0.135254 87.068 1.35801 85.9218 2.71664 85.9218C4.07526 85.9218 5.29802 87.2112 5.29802 88.6439C5.29802 90.0766 4.07526 91.366 2.71664 91.366Z" fill="#FF4F6E"/>
<path d="M27.3075 91.3654C25.813 91.3654 24.7261 90.076 24.7261 88.6433C24.7261 87.0673 25.9488 85.9211 27.3075 85.9211C28.6661 85.9211 29.8888 87.2106 29.8888 88.6433C29.8888 90.076 28.8019 91.3654 27.3075 91.3654Z" fill="#FF4F6E"/>
<path d="M51.8983 91.3654C50.4038 91.3654 49.3169 90.076 49.3169 88.6433C49.3169 87.0673 50.5397 85.9211 51.8983 85.9211C53.2569 85.9211 54.4797 87.2106 54.4797 88.6433C54.6155 90.076 53.3928 91.3654 51.8983 91.3654Z" fill="#FF4F6E"/>
<path d="M76.6262 91.3654C75.1317 91.3654 74.0448 90.076 74.0448 88.6433C74.0448 87.0673 75.2676 85.9211 76.6262 85.9211C77.9848 85.9211 79.2076 87.0673 79.2076 88.6433C79.2076 90.076 77.9848 91.3654 76.6262 91.3654Z" fill="#FF4F6E"/>
<path d="M101.217 91.3654C99.7224 91.3654 98.6355 90.076 98.6355 88.6433C98.6355 87.0673 99.8583 85.9211 101.217 85.9211C102.711 85.9211 103.798 87.2106 103.798 88.6433C103.798 90.076 102.711 91.3654 101.217 91.3654Z" fill="#FF4F6E"/>
<path d="M125.806 91.3654C124.312 91.3654 123.225 90.076 123.225 88.6433C123.225 87.0673 124.448 85.9211 125.806 85.9211C127.165 85.9211 128.388 87.2106 128.388 88.6433C128.524 90.076 127.301 91.3654 125.806 91.3654Z" fill="#FF4F6E"/>
<path d="M2.71664 112.81C1.22215 112.81 0.135254 111.521 0.135254 110.088C0.135254 108.512 1.35801 107.366 2.71664 107.366C4.07526 107.366 5.29802 108.655 5.29802 110.088C5.29802 111.664 4.07526 112.81 2.71664 112.81Z" fill="#FF4F6E"/>
<path d="M27.3075 112.81C25.813 112.81 24.7261 111.521 24.7261 110.088C24.7261 108.512 25.9488 107.366 27.3075 107.366C28.6661 107.366 29.8888 108.656 29.8888 110.088C29.8888 111.664 28.8019 112.81 27.3075 112.81Z" fill="#FF4F6E"/>
<path d="M51.8983 112.81C50.4038 112.81 49.3169 111.521 49.3169 110.088C49.3169 108.512 50.5397 107.366 51.8983 107.366C53.2569 107.366 54.4797 108.656 54.4797 110.088C54.6155 111.664 53.3928 112.81 51.8983 112.81Z" fill="#FF4F6E"/>
<path d="M76.6262 112.81C75.1317 112.81 74.0448 111.521 74.0448 110.088C74.0448 108.512 75.2676 107.366 76.6262 107.366C77.9848 107.366 79.2076 108.656 79.2076 110.088C79.2076 111.664 77.9848 112.81 76.6262 112.81Z" fill="#FF4F6E"/>
<path d="M101.217 112.81C99.7224 112.81 98.6355 111.521 98.6355 110.088C98.6355 108.512 99.8583 107.366 101.217 107.366C102.711 107.366 103.798 108.656 103.798 110.088C103.798 111.664 102.711 112.81 101.217 112.81Z" fill="#FF4F6E"/>
<path d="M125.806 112.81C124.312 112.81 123.225 111.521 123.225 110.088C123.225 108.512 124.448 107.366 125.806 107.366C127.165 107.366 128.388 108.656 128.388 110.088C128.524 111.664 127.301 112.81 125.806 112.81Z" fill="#FF4F6E"/>
</g>
</svg>
